<svg width="13" height="18" viewBox="0 0 13 18" fill="none" xmlns="http://www.w3.org/2000/svg">
<rect x="0.5" y="0.728027" width="12" height="16" stroke="white"/>
<path d="M11.9844 5.80615H1.01562C0.854009 5.80615 0.699012 5.7222 0.584732 5.57275C0.470452 5.42331 0.40625 5.22062 0.40625 5.00928C0.40625 4.79793 0.470452 4.59524 0.584732 4.4458C0.699012 4.29636 0.854009 4.2124 1.01562 4.2124H11.9844C12.146 4.2124 12.301 4.29636 12.4153 4.4458C12.5295 4.59524 12.5938 4.79793 12.5938 5.00928C12.5938 5.22062 12.5295 5.42331 12.4153 5.57275C12.301 5.7222 12.146 5.80615 11.9844 5.80615V5.80615Z" fill="black"/>
<path d="M9.95312 9.5249H3.04688C2.88526 9.5249 2.73026 9.44095 2.61598 9.2915C2.5017 9.14206 2.4375 8.93937 2.4375 8.72803C2.4375 8.51668 2.5017 8.31399 2.61598 8.16455C2.73026 8.01511 2.88526 7.93115 3.04688 7.93115H9.95312C10.1147 7.93115 10.2697 8.01511 10.384 8.16455C10.4983 8.31399 10.5625 8.51668 10.5625 8.72803C10.5625 8.93937 10.4983 9.14206 10.384 9.2915C10.2697 9.44095 10.1147 9.5249 9.95312 9.5249Z" fill="black"/>
<path d="M7.51562 13.2437H5.48438C5.32276 13.2437 5.16776 13.1597 5.05348 13.0103C4.9392 12.8608 4.875 12.6581 4.875 12.4468C4.875 12.2354 4.9392 12.0327 5.05348 11.8833C5.16776 11.7339 5.32276 11.6499 5.48438 11.6499H7.51562C7.67724 11.6499 7.83224 11.7339 7.94652 11.8833C8.0608 12.0327 8.125 12.2354 8.125 12.4468C8.125 12.6581 8.0608 12.8608 7.94652 13.0103C7.83224 13.1597 7.67724 13.2437 7.51562 13.2437Z" fill="black"/>
</svg>
