<svg width="351" height="112" viewBox="0 0 351 112" fill="none" xmlns="http://www.w3.org/2000/svg">
<mask id="path-1-inside-1_415_363" fill="white">
<path fill-rule="evenodd" clip-rule="evenodd" d="M350.704 42.4925H350.82V106.74C350.82 109.115 348.895 111.04 346.52 111.04H5.09999C2.72517 111.04 0.8 109.115 0.8 106.74V46.7925C0.8 44.4177 2.72518 42.4925 5.1 42.4925H196.265L270.861 0.752827L271.027 0.845877C271.717 0.375209 272.551 0.1 273.449 0.1H346.52C348.895 0.1 350.82 2.02518 350.82 4.4V41.4984C350.82 41.8405 350.78 42.1734 350.704 42.4925Z"/>
</mask>
<path d="M350.704 42.4925L349.868 42.2944L349.617 43.3525H350.704V42.4925ZM350.82 42.4925H351.68V41.6325H350.82V42.4925ZM196.265 42.4925V43.3525H196.489L196.685 43.243L196.265 42.4925ZM270.861 0.752827L271.281 0.00233105L270.861 -0.23265L270.441 0.00232488L270.861 0.752827ZM271.027 0.845877L270.607 1.59637L271.072 1.85647L271.512 1.55619L271.027 0.845877ZM350.704 42.4925V43.3525H350.82V42.4925V41.6325H350.704V42.4925ZM350.82 42.4925H349.96V106.74H350.82H351.68V42.4925H350.82ZM350.82 106.74H349.96C349.96 108.64 348.42 110.18 346.52 110.18V111.04V111.9C349.37 111.9 351.68 109.59 351.68 106.74H350.82ZM346.52 111.04V110.18H5.09999V111.04V111.9H346.52V111.04ZM5.09999 111.04V110.18C3.20014 110.18 1.66 108.64 1.66 106.74H0.8H-0.06C-0.06 109.59 2.2502 111.9 5.09999 111.9V111.04ZM0.8 106.74H1.66V46.7925H0.8H-0.06V106.74H0.8ZM0.8 46.7925H1.66C1.66 44.8926 3.20014 43.3525 5.1 43.3525V42.4925V41.6325C2.25021 41.6325 -0.06 43.9427 -0.06 46.7925H0.8ZM5.1 42.4925V43.3525H196.265V42.4925V41.6325H5.1V42.4925ZM196.265 42.4925L196.685 43.243L271.281 1.50333L270.861 0.752827L270.441 0.00232488L195.845 41.742L196.265 42.4925ZM270.861 0.752827L270.441 1.50332L270.607 1.59637L271.027 0.845877L271.447 0.0953803L271.281 0.00233105L270.861 0.752827ZM271.027 0.845877L271.512 1.55619C272.063 1.17995 272.729 0.96 273.449 0.96V0.1V-0.76C272.372 -0.76 271.371 -0.429532 270.543 0.135562L271.027 0.845877ZM273.449 0.1V0.96H346.52V0.1V-0.76H273.449V0.1ZM346.52 0.1V0.96C348.42 0.96 349.96 2.50014 349.96 4.4H350.82H351.68C351.68 1.55021 349.37 -0.76 346.52 -0.76V0.1ZM350.82 4.4H349.96V41.4984H350.82H351.68V4.4H350.82ZM350.82 41.4984H349.96C349.96 41.7734 349.928 42.0398 349.868 42.2944L350.704 42.4925L351.541 42.6906C351.632 42.307 351.68 41.9077 351.68 41.4984H350.82Z" fill="white" mask="url(#path-1-inside-1_415_363)"/>
<path fill-rule="evenodd" clip-rule="evenodd" d="M312.718 76.3747C312.531 77.4611 311.724 78.1905 311.724 78.1905C310.902 78.9199 309.815 78.9199 309.815 78.9199H291.157L293.764 60.2497C293.904 59.1788 294.742 58.4494 294.742 58.4494C295.581 57.72 296.667 57.72 296.667 57.72H315.326L312.718 76.3747ZM329.855 57.72L325.99 71.129H331.5L333.208 59.1012L331.982 57.72H340.473L338.579 71.129H341.404L340.923 74.6675H338.098L337.492 78.9199H330.414L331.019 74.6675H318.306L318.803 71.129L322.559 58.6201L321.737 57.72H329.855ZM216.725 78.9199L226.706 57.8286H219.55L212.394 72.4637L209.569 57.8286H202.04L202.754 58.8684L206.697 78.9199H216.725ZM229.95 76.4212C229.95 76.4212 229.795 76.9334 229.904 77.399C229.904 77.399 230.012 77.8646 230.338 78.206C230.338 78.206 230.649 78.5474 231.099 78.7337C231.099 78.7337 231.549 78.9199 232.061 78.9199H252.117L254.6 60.3273C254.6 60.3273 254.756 59.7686 254.647 59.3185C254.647 59.3185 254.538 58.8684 254.212 58.5425C254.212 58.5425 253.902 58.2011 253.452 58.0148C253.452 58.0148 253.001 57.8286 252.489 57.8286H232.434L229.95 76.4212ZM279.126 75.3349L278.785 78.9199H260.189C259.117 78.9199 258.574 78.206 258.574 78.206C258.031 77.4921 258.031 76.4212 258.031 76.4212L260.189 59.2409L259.117 57.8286H267.686L265.187 75.3349H279.126ZM300.734 61.2274L298.716 75.3814H305.764L307.766 61.2274H300.734ZM247.46 61.4137L245.333 75.3349H237.091L238.891 61.4137H247.46ZM281.734 78.8734H287.385L287.99 74.6365H282.324L281.734 78.8734Z" fill="white"/>
<mask id="mask0_415_363" style="mask-type:luminance" maskUnits="userSpaceOnUse" x="295" y="19" width="22" height="22">
<path d="M316.417 19.88H295.942V40.3503H316.417V19.88Z" fill="white"/>
</mask>
<g mask="url(#mask0_415_363)">
<path fill-rule="evenodd" clip-rule="evenodd" d="M297.648 30.1219C297.648 34.8096 301.498 38.6375 306.186 38.6375C310.875 38.6375 314.704 34.8096 314.704 30.1219C314.704 25.4138 310.875 21.5858 306.186 21.5858C301.498 21.5858 297.648 25.4342 297.648 30.1219ZM308.397 23.6328C308.909 24.6564 309.339 25.598 309.585 26.7034H312.062C311.305 25.25 309.933 24.2265 308.397 23.6328ZM304.559 26.7102H307.793C307.466 25.4206 306.852 24.3152 306.176 23.2917C305.5 24.3152 304.907 25.5024 304.559 26.7102ZM302.508 31.8278C302.508 31.2341 302.426 30.7019 302.426 30.1083C302.426 29.5146 302.426 29.0029 302.508 28.4092H299.621C299.437 28.921 299.355 29.5146 299.355 30.1083C299.355 30.7019 299.437 31.316 299.621 31.8278H302.508ZM303.958 36.5973C303.446 35.5738 303.016 34.6322 302.77 33.5268H300.293C301.071 34.9802 302.422 36.0037 303.958 36.5973ZM303.958 23.6328C302.422 24.2265 301.153 25.25 300.293 26.7034H302.77C303.016 25.598 303.446 24.6564 303.958 23.6328ZM307.793 33.5268H304.559C304.907 34.7959 305.5 35.9218 306.176 36.9453C306.872 35.9218 307.466 34.7141 307.793 33.5268ZM308.408 30.1083C308.408 29.5146 308.305 29.0029 308.223 28.4092H304.21C304.129 29.0029 304.047 29.5146 304.047 30.1083C304.047 30.7019 304.129 31.2136 304.21 31.8278H308.142C308.223 31.2341 308.408 30.7019 308.408 30.1083ZM312.062 33.5268H309.585C309.339 34.6322 308.909 35.6557 308.397 36.5973C309.933 36.0037 311.305 34.9802 312.062 33.5268ZM312.84 31.8278C313.004 31.316 313.086 30.7019 313.086 30.1083C313.086 29.5146 313.004 28.921 312.84 28.4092H309.933C309.933 29.0029 310.015 29.5146 310.015 30.1083C310.015 30.7019 310.015 31.2136 309.933 31.8278H312.84Z" fill="white"/>
</g>
<path fill-rule="evenodd" clip-rule="evenodd" d="M202.445 96.42H202.04V88.68H202.445V96.42ZM202.85 88.68H203.255V96.42H202.85V88.68ZM203.66 96.42H204.875V88.68H203.66V96.42ZM206.09 96.42H206.495V88.68H206.09V96.42ZM208.114 96.42H206.9V88.68H208.114V96.42ZM210.207 96.42V88.68H211.422V96.42H210.207ZM212.231 96.42V88.68H211.826V96.42H212.231ZM213.851 88.68V96.42H212.636V88.68H213.851ZM215.066 96.42H215.471V88.68H215.066V96.42ZM215.876 88.68V96.42H216.281V88.68H215.876ZM218.373 88.68H219.588V96.42H218.373V88.68ZM219.993 88.68V96.42H220.398V88.68H219.993ZM220.803 96.42H221.208V88.68H220.803V96.42ZM222.423 88.68H222.828V96.42H222.423V88.68ZM223.233 96.42H224.448V88.68H223.233V96.42ZM226.54 88.68V96.42H226.945V88.68H226.54ZM227.755 96.42H227.35V88.68H227.755V96.42ZM229.375 88.68V96.42H228.16V88.68H229.375ZM230.589 88.68V96.42H230.994V88.68H230.589ZM232.614 96.42H231.399V88.68H232.614V96.42ZM235.921 88.68V96.42H234.706V88.68H235.921ZM236.731 88.68V96.42H236.326V88.68H236.731ZM237.136 96.42V88.68H237.541V96.42H237.136ZM239.161 96.42V88.68H237.946V96.42H239.161ZM240.781 88.68H240.376V96.42H240.781V88.68ZM244.088 88.68H242.873V96.42H244.088V88.68ZM244.898 96.42V88.68H244.493V96.42H244.898ZM245.708 96.42H245.303V88.68H245.708V96.42ZM246.923 88.68H247.328V96.42H246.923V88.68ZM247.733 96.42H248.947V88.68H247.733V96.42ZM251.04 88.68V96.42H251.445V88.68H251.04ZM251.85 96.42V88.68H253.064V96.42H251.85ZM253.874 96.42H253.469V88.68H253.874V96.42ZM255.494 88.68H255.089V96.42H255.494V88.68ZM255.899 96.42V88.68H257.114V96.42H255.899ZM259.206 96.42H259.611V88.68H259.206V96.42ZM261.231 88.68H260.016V96.42H261.231V88.68ZM262.041 96.42H261.636V88.68H262.041V96.42ZM263.256 96.42V88.68H263.661V96.42H263.256ZM264.066 96.42H265.281V88.68H264.066V96.42ZM267.373 88.68V96.42H267.778V88.68H267.373ZM268.183 96.42V88.68H269.398V96.42H268.183ZM270.208 96.42V88.68H269.803V96.42H270.208ZM272.637 88.68V96.42H271.422V88.68H272.637ZM273.447 96.42H273.042V88.68H273.447V96.42ZM275.539 88.68V96.42H275.944V88.68H275.539ZM276.754 96.42V88.68H276.349V96.42H276.754ZM278.374 96.42H277.159V88.68H278.374V96.42ZM279.994 88.68V96.42H278.779V88.68H279.994ZM281.209 88.68V96.42H281.614V88.68H281.209ZM283.706 88.68H284.921V96.42H283.706V88.68ZM286.136 96.42V88.68H286.541V96.42H286.136ZM287.351 88.68H286.946V96.42H287.351V88.68ZM288.971 88.68V96.42H287.756V88.68H288.971ZM289.375 88.68V96.42H289.78V88.68H289.375ZM291.873 88.68H293.088V96.42H291.873V88.68ZM293.897 88.68V96.42H293.493V88.68H293.897ZM294.302 96.42H295.517V88.68H294.302V96.42ZM295.922 88.68V96.42H296.327V88.68H295.922ZM297.947 96.42H297.542V88.68H297.947V96.42ZM300.039 96.42H300.444V88.68H300.039V96.42ZM300.849 88.68V96.42H301.254V88.68H300.849ZM302.874 88.68V96.42H301.659V88.68H302.874ZM303.684 88.68V96.42H303.279V88.68H303.684ZM304.899 96.42H306.114V88.68H304.899V96.42ZM308.611 88.68H308.206V96.42H308.611V88.68ZM310.231 88.68H309.016V96.42H310.231V88.68ZM311.041 96.42H310.636V88.68H311.041V96.42ZM311.446 88.68V96.42H311.851V88.68H311.446ZM313.065 96.42V88.68H314.28V96.42H313.065ZM316.373 96.42H316.777V88.68H316.373V96.42ZM317.182 88.68V96.42H318.397V88.68H317.182ZM318.802 88.68H319.207V96.42H318.802V88.68ZM321.637 88.68V96.42H320.422V88.68H321.637ZM322.042 88.68H322.447V96.42H322.042V88.68ZM324.539 96.42H324.944V88.68H324.539V96.42ZM325.349 96.42H325.754V88.68H325.349V96.42ZM326.159 88.68H327.374V96.42H326.159V88.68ZM327.779 88.68H328.184V96.42H327.779V88.68ZM329.399 96.42H330.613V88.68H329.399V96.42ZM332.706 88.68H333.921V96.42H332.706V88.68ZM334.73 96.42V88.68H334.326V96.42H334.73ZM336.35 88.68V96.42H335.135V88.68H336.35ZM337.565 88.68V96.42H337.97V88.68H337.565ZM338.375 88.68V96.42H338.78V88.68H338.375Z" fill="white"/>
<path fill-rule="evenodd" clip-rule="evenodd" d="M33.6995 95.8258C32.9523 96.3887 31.6738 96.3887 31.6738 96.3887C30.4782 96.3887 29.7808 95.8414 29.7808 95.8414C29.1 95.2785 29.0004 94.1996 29.0004 94.1996H29.8306C29.9967 95.7007 31.7402 95.7007 31.7402 95.7007C32.6368 95.7007 33.1184 95.3411 33.1184 95.3411C33.5833 94.9658 33.5833 94.2778 33.5833 94.2778C33.5833 93.6524 33.218 93.3396 33.218 93.3396C32.8361 93.0269 32.0889 92.9018 32.0889 92.9018L31.1756 92.7611C30.1959 92.6047 29.6812 92.1356 29.6812 92.1356C29.1664 91.6509 29.1664 90.7909 29.1664 90.7909C29.1664 89.7902 29.8638 89.2429 29.8638 89.2429C30.5778 88.68 31.7402 88.68 31.7402 88.68C32.8029 88.68 33.4837 89.196 33.4837 89.196C34.1645 89.7276 34.2973 90.7753 34.2973 90.7753H33.4671C33.3176 89.368 31.7236 89.368 31.7236 89.368C30.9099 89.368 30.445 89.7433 30.445 89.7433C29.9801 90.1029 29.9801 90.744 29.9801 90.744C29.9801 91.2913 30.3454 91.604 30.3454 91.604C30.6941 91.9167 31.4081 92.0418 31.4081 92.0418L32.3379 92.1982C33.3508 92.3545 33.8822 92.8549 33.8822 92.8549C34.4301 93.3396 34.4302 94.2465 34.4302 94.2465C34.4302 95.2629 33.6995 95.8258 33.6995 95.8258ZM47.4151 95.732C47.4151 95.732 48.1623 95.0596 48.1623 93.5742V92.4484H45.3893V93.1364H47.3155V93.7149C47.3155 93.7149 47.3155 94.7469 46.8339 95.216C46.8339 95.216 46.3524 95.6851 45.4225 95.6851C45.4225 95.6851 43.4466 95.6851 43.4466 93.5742V91.604C43.4466 91.604 43.4466 90.4469 43.9613 89.9153C43.9613 89.9153 44.4594 89.3993 45.4225 89.3993C45.4225 89.3993 46.286 89.3993 46.7841 89.8214C46.7841 89.8214 47.2823 90.2436 47.2823 90.9629V91.0098H48.1457V90.9629C48.1457 90.9629 48.1457 90.2905 47.797 89.7745C47.797 89.7745 47.4649 89.2429 46.8505 88.9614C46.8505 88.9614 46.2362 88.68 45.4059 88.68C45.4059 88.68 44.1274 88.68 43.3635 89.368C43.3635 89.368 42.5997 90.0716 42.5997 91.5727V93.5273C42.5997 93.5273 42.5997 95.0284 43.3635 95.7164C43.3635 95.7164 44.1274 96.42 45.4059 96.42C45.4059 96.42 46.6679 96.42 47.4151 95.732ZM16.746 95.6382C16.746 95.6382 17.4933 94.9345 17.4933 93.4491V91.6665C17.4933 91.6665 17.4933 90.1654 16.746 89.4774C16.746 89.4774 15.9988 88.7738 14.7203 88.7738H11.9805V96.3262H14.7203C14.7203 96.3262 15.9988 96.3262 16.746 95.6382ZM26.0613 88.7738V89.4931H22.043V92.12H25.4802V92.8549H22.043V95.6069H26.0613V96.3262H21.1961V88.7738H26.0613ZM37.967 96.3262H38.8304V88.7738H37.967V96.3262ZM57.6935 88.7738H56.8466V94.8407L52.6954 88.7738H51.8486V96.3262H52.6954V90.2436L56.8466 96.3262H57.6935V88.7738ZM66.4276 96.3262V95.6069H62.3926V92.8549H65.8464V92.12H62.3926V89.4931H66.4276V88.7738H61.5458V96.3262H66.4276ZM69.898 96.3262V88.7738H72.6378C73.9164 88.7738 74.6636 89.4774 74.6636 89.4774C75.4274 90.1654 75.4274 91.6665 75.4274 91.6665V93.4491C75.4274 94.9345 74.6636 95.6382 74.6636 95.6382C73.9164 96.3262 72.6378 96.3262 72.6378 96.3262H69.898ZM90.4547 95.7789C89.8071 96.3262 88.678 96.3262 88.678 96.3262H85.6726V88.7738H88.6116C89.7407 88.7738 90.3551 89.3054 90.3551 89.3054C90.9861 89.8214 90.9861 90.7753 90.9861 90.7753C90.9861 91.3538 90.654 91.8073 90.654 91.8073C90.3385 92.2764 89.7573 92.4484 89.7573 92.4484C90.4215 92.636 90.7702 93.1207 90.7702 93.1207C91.1023 93.5898 91.1023 94.2622 91.1023 94.2622C91.1023 95.2316 90.4547 95.7789 90.4547 95.7789ZM94.8716 88.7738L96.7646 92.4014L98.6741 88.7738H99.5874L97.1963 93.1676V96.3262H96.3494V93.152L93.9583 88.7738H94.8716ZM111.892 96.3262C111.892 96.3262 113.17 96.3262 113.917 95.6382C113.917 95.6382 114.681 94.9345 114.681 93.4491V91.6665C114.681 91.6665 114.681 90.1654 113.917 89.4774C113.917 89.4774 113.17 88.7738 111.892 88.7738H109.152V96.3262H111.892ZM123.233 88.7738V89.4931H119.214V92.12H122.651V92.8549H119.214V95.6069H123.233V96.3262H118.367V88.7738H123.233ZM131.518 96.3262H132.415L129.493 88.7738H128.779L125.873 96.3262H126.753L127.434 94.5124H130.838L131.518 96.3262ZM140.186 89.4774C140.933 90.1654 140.933 91.6665 140.933 91.6665V93.4491C140.933 94.9345 140.186 95.6382 140.186 95.6382C139.439 96.3262 138.16 96.3262 138.16 96.3262H135.421V88.7738H138.16C139.439 88.7738 140.186 89.4774 140.186 89.4774ZM149.219 96.3262H150.199L148.306 92.9331C148.306 92.9331 149.103 92.7611 149.568 92.2294C149.568 92.2294 150.016 91.7134 150.016 90.9004C150.016 90.9004 150.016 89.884 149.369 89.3367C149.369 89.3367 148.721 88.7738 147.608 88.7738H144.62V96.3262H145.466V93.0113H147.409L149.219 96.3262ZM157.704 94.5124L158.385 96.3262H159.282L156.359 88.7738H155.645L152.739 96.3262H153.619L154.3 94.5124H157.704ZM167.368 93.1207C167.717 93.5898 167.717 94.2622 167.717 94.2622C167.717 95.2316 167.069 95.7789 167.069 95.7789C166.422 96.3262 165.293 96.3262 165.293 96.3262H162.287V88.7738H165.226C166.355 88.7738 166.97 89.3054 166.97 89.3054C167.584 89.8214 167.584 90.7753 167.584 90.7753C167.584 91.3538 167.268 91.8073 167.268 91.8073C166.936 92.2764 166.355 92.4484 166.355 92.4484C167.036 92.636 167.368 93.1207 167.368 93.1207ZM171.403 88.7738V96.3262H174.425C174.425 96.3262 175.554 96.3262 176.202 95.7789C176.202 95.7789 176.849 95.2316 176.849 94.2622C176.849 94.2622 176.849 93.5898 176.501 93.1207C176.501 93.1207 176.169 92.636 175.488 92.4484C175.488 92.4484 176.069 92.2764 176.401 91.8073C176.401 91.8073 176.717 91.3538 176.717 90.7753C176.717 90.7753 176.717 89.8214 176.102 89.3054C176.102 89.3054 175.471 88.7738 174.342 88.7738H171.403ZM181.482 96.3262H180.635V88.7738H181.482V96.3262ZM184.587 88.7738H190V89.4931H187.709V96.3262H186.879V89.4931H184.587V88.7738ZM12.8439 89.4931H14.7369C14.7369 89.4931 15.6501 89.4931 16.1483 90.0247C16.1483 90.0247 16.6464 90.5564 16.6464 91.6978V93.4804C16.6464 93.4804 16.6464 95.6069 14.7369 95.6069H12.8439V89.4931ZM72.6544 95.6069C74.5639 95.6069 74.5639 93.4804 74.5639 93.4804V91.6978C74.5639 90.5564 74.0658 90.0247 74.0658 90.0247C73.5677 89.4931 72.6544 89.4931 72.6544 89.4931H70.7614V95.6069H72.6544ZM89.7241 89.8214C89.7241 89.8214 90.1392 90.1498 90.1392 90.8065C90.1392 90.8065 90.1392 91.4633 89.7075 91.7916C89.7075 91.7916 89.2758 92.12 88.512 92.12H86.5194V89.4931H88.5286C88.5286 89.4931 89.2924 89.4931 89.7241 89.8214ZM113.32 90.0247C113.32 90.0247 113.818 90.5564 113.818 91.6978V93.4804C113.818 93.4804 113.818 95.6069 111.908 95.6069H110.015V89.4931H111.908C111.908 89.4931 112.821 89.4931 113.32 90.0247ZM136.267 95.6069H138.16C140.07 95.6069 140.07 93.4804 140.07 93.4804V91.6978C140.07 90.5564 139.588 90.0247 139.588 90.0247C139.09 89.4931 138.16 89.4931 138.16 89.4931H136.267V95.6069ZM145.466 92.3233V89.4931H147.525C147.525 89.4931 148.322 89.4931 148.738 89.8527C148.738 89.8527 149.169 90.2124 149.169 90.916C149.169 90.916 149.169 91.5884 148.738 91.9636C148.738 91.9636 148.306 92.3233 147.525 92.3233H145.466ZM166.305 91.7916C166.737 91.4633 166.737 90.8065 166.737 90.8065C166.737 90.1498 166.322 89.8214 166.322 89.8214C165.907 89.4931 165.143 89.4931 165.143 89.4931H163.134V92.12H165.126C165.89 92.12 166.305 91.7916 166.305 91.7916ZM175.87 90.8065C175.87 90.1498 175.455 89.8214 175.455 89.8214C175.04 89.4931 174.276 89.4931 174.276 89.4931H172.25V92.12H174.259C175.006 92.12 175.438 91.7916 175.438 91.7916C175.87 91.4633 175.87 90.8065 175.87 90.8065ZM129.127 89.8996L130.589 93.84H127.683L129.127 89.8996ZM154.549 93.84L155.994 89.8996L157.455 93.84H154.549ZM78.8646 92.8862H82.0693V92.1669H78.8646V92.8862ZM105.548 92.8862H102.344V92.1669H105.548V92.8862ZM86.5194 95.6225H88.5784C89.3754 95.6225 89.8238 95.2629 89.8238 95.2629C90.2555 94.9033 90.2555 94.1996 90.2555 94.1996C90.2555 93.5273 89.8238 93.1833 89.8238 93.1833C89.392 92.8236 88.595 92.8236 88.595 92.8236H86.5194V95.6225ZM163.134 95.6225H165.193C165.99 95.6225 166.422 95.2629 166.422 95.2629C166.87 94.9033 166.87 94.1996 166.87 94.1996C166.87 93.5273 166.438 93.1833 166.438 93.1833C165.99 92.8236 165.193 92.8236 165.193 92.8236H163.134V95.6225ZM172.25 92.8236H174.326C174.326 92.8236 175.123 92.8236 175.571 93.1833C175.571 93.1833 176.003 93.5273 176.003 94.1996C176.003 94.1996 176.003 94.9033 175.554 95.2629C175.554 95.2629 175.123 95.6225 174.309 95.6225H172.25V92.8236Z" fill="white"/>
<path fill-rule="evenodd" clip-rule="evenodd" d="M11.9805 57.72H13.0981V79.6959H11.9805V57.72ZM15.3334 79.6959V57.72H14.2158V79.6959H15.3334ZM19.804 79.6959H16.451V57.72H19.804V79.6959ZM24.2745 79.6959H23.1569V57.72H24.2745V79.6959ZM25.3922 79.6959H28.7451V57.72H25.3922V79.6959ZM33.2157 57.72V79.6959H29.8628V57.72H33.2157ZM34.3333 57.72H35.451V79.6959H34.3333V57.72ZM36.5686 79.6959H39.9215V57.72H36.5686V79.6959ZM44.3921 57.72H43.2745V79.6959H44.3921V57.72ZM46.6274 79.6959H45.5098V57.72H46.6274V79.6959ZM47.745 79.6959V57.72H51.098V79.6959H47.745ZM52.2156 79.6959V57.72H53.3333V79.6959H52.2156ZM54.4509 57.72V79.6959H55.5685V57.72H54.4509ZM58.9215 79.6959H60.0391V57.72H58.9215V79.6959ZM64.5097 79.6959V57.72H61.1568V79.6959H64.5097ZM66.745 57.72V79.6959H65.6273V57.72H66.745ZM67.8626 79.6959V57.72H68.9803V79.6959H67.8626ZM73.4508 57.72H70.0979V79.6959H73.4508V57.72ZM76.8038 57.72V79.6959H77.9214V57.72H76.8038ZM79.0391 79.6959V57.72H82.392V79.6959H79.0391ZM83.5096 79.6959H86.8626V57.72H83.5096V79.6959ZM89.0978 79.6959H87.9802V57.72H89.0978V79.6959ZM91.3331 79.6959H90.2155V57.72H91.3331V79.6959ZM95.8037 79.6959V57.72H92.4508V79.6959H95.8037ZM100.274 79.6959V57.72H99.1566V79.6959H100.274ZM101.392 79.6959V57.72H104.745V79.6959H101.392ZM105.862 79.6959V57.72H106.98V79.6959H105.862ZM109.215 79.6959V57.72H108.098V79.6959H109.215ZM112.568 57.72V79.6959H113.686V57.72H112.568ZM118.157 57.72H114.804V79.6959H118.157V57.72ZM120.392 57.72V79.6959H119.274V57.72H120.392ZM124.862 57.72V79.6959H121.509V57.72H124.862ZM125.98 57.72V79.6959H127.098V57.72H125.98ZM130.451 57.72V79.6959H131.568V57.72H130.451ZM132.686 79.6959V57.72H136.039V79.6959H132.686ZM138.274 79.6959V57.72H137.156V79.6959H138.274ZM139.392 79.6959V57.72H142.745V79.6959H139.392ZM144.98 79.6959H143.862V57.72H144.98V79.6959ZM148.333 57.72V79.6959H149.451V57.72H148.333ZM153.921 57.72V79.6959H150.568V57.72H153.921ZM155.039 79.6959V57.72H156.156V79.6959H155.039ZM160.627 79.6959H157.274V57.72H160.627V79.6959ZM161.745 79.6959H162.862V57.72H161.745V79.6959ZM166.215 79.6959V57.72H169.568V79.6959H166.215ZM171.803 79.6959V57.72H170.686V79.6959H171.803ZM174.039 79.6959V57.72H172.921V79.6959H174.039ZM175.156 79.6959V57.72H176.274V79.6959H175.156ZM180.745 57.72H177.392V79.6959H180.745V57.72ZM185.215 57.72H181.862V79.6959H185.215V57.72ZM188.568 57.72H189.686V79.6959H188.568V57.72Z" fill="white"/>
<path d="M279.01 22.89L286.83 37.08H271.189L279.01 22.89Z" fill="white"/>
<rect x="325.02" y="23.32" width="14.62" height="14.62" fill="white"/>
</svg>
