<svg width="372" height="16" viewBox="0 0 372 16" fill="none" xmlns="http://www.w3.org/2000/svg">
<mask id="mask0_451_438" style="mask-type:luminance" maskUnits="userSpaceOnUse" x="0" y="0" width="372" height="16">
<path d="M363.339 15.651H7.71299C3.45299 15.651 0 12.195 0 7.93502V7.71299C0 3.45299 3.45299 0 7.71299 0H363.339C367.599 0 371.055 3.45299 371.055 7.71299V7.93502C371.055 12.195 367.599 15.651 363.339 15.651Z" fill="white"/>
</mask>
<g mask="url(#mask0_451_438)">
<path d="M9.25799 -3.99896L-12.042 17.301H-2.71201L18.378 -3.78898L9.25799 -3.99896Z" fill="white"/>
<path d="M27.348 -3.99896L6.048 17.301H15.378L36.468 -3.78898L27.348 -3.99896Z" fill="white"/>
<path d="M45.438 -3.99896L24.138 17.301H33.468L54.558 -3.78898L45.438 -3.99896Z" fill="white"/>
<path d="M63.528 -3.99896L42.228 17.301H51.558L72.648 -3.78898L63.528 -3.99896Z" fill="white"/>
<path d="M81.618 -3.99896L60.318 17.301H69.648L90.738 -3.78898L81.618 -3.99896Z" fill="white"/>
<path d="M99.708 -3.99896L78.408 17.301H87.738L108.828 -3.78898L99.708 -3.99896Z" fill="white"/>
<path d="M117.798 -3.99896L96.498 17.301H105.858L126.918 -3.78898L117.798 -3.99896Z" fill="white"/>
<path d="M135.888 -3.99896L114.588 17.301H123.948L145.008 -3.78898L135.888 -3.99896Z" fill="white"/>
<path d="M154.008 -3.99896L132.678 17.301H142.038L163.098 -3.78898L154.008 -3.99896Z" fill="white"/>
<path d="M172.098 -3.99896L150.798 17.301H160.128L181.218 -3.78898L172.098 -3.99896Z" fill="white"/>
<path d="M190.188 -3.99896L168.888 17.301H178.218L199.308 -3.78898L190.188 -3.99896Z" fill="white"/>
<path d="M208.278 -3.99896L186.978 17.301H196.308L217.398 -3.78898L208.278 -3.99896Z" fill="white"/>
<path d="M226.368 -3.99896L205.068 17.301H214.398L235.488 -3.78898L226.368 -3.99896Z" fill="white"/>
<path d="M244.458 -3.99896L223.158 17.301H232.488L253.578 -3.78898L244.458 -3.99896Z" fill="white"/>
<path d="M262.548 -3.99896L241.248 17.301H250.578L271.668 -3.78898L262.548 -3.99896Z" fill="white"/>
<path d="M280.638 -3.99896L259.338 17.301H268.668L289.758 -3.78898L280.638 -3.99896Z" fill="white"/>
<path d="M298.728 -3.99896L277.428 17.301H286.758L307.848 -3.78898L298.728 -3.99896Z" fill="white"/>
<path d="M316.818 -3.99896L295.518 17.301H304.848L325.938 -3.78898L316.818 -3.99896Z" fill="white"/>
<path d="M334.908 -3.99896L313.608 17.301H322.968L344.028 -3.78898L334.908 -3.99896Z" fill="white"/>
<path d="M352.998 -3.99896L331.698 17.301H341.058L362.118 -3.78898L352.998 -3.99896Z" fill="white"/>
<path d="M371.118 -3.99896L349.788 17.301H359.148L380.238 -3.78898L371.118 -3.99896Z" fill="white"/>
</g>
</svg>
