<svg width="22" height="25" viewBox="0 0 22 25" fill="none" xmlns="http://www.w3.org/2000/svg">
<path fill-rule="evenodd" clip-rule="evenodd" d="M21.5526 13.2223C21.8391 13.5089 22 13.8975 22 14.3028C22 14.708 21.8391 15.0966 21.5526 15.3832L12.3832 24.5526C12.0966 24.8391 11.708 25 11.3028 25C10.8975 25 10.5089 24.8391 10.2223 24.5526L1.05298 15.3832C0.774607 15.095 0.620569 14.709 0.624052 14.3083C0.627535 13.9076 0.788256 13.5243 1.0716 13.2409C1.35494 12.9576 1.73824 12.7969 2.13894 12.7934C2.53963 12.7899 2.92566 12.9439 3.21389 13.2223L9.77455 19.783L9.77455 2.077C9.77455 1.67169 9.93556 1.28297 10.2222 0.996378C10.5088 0.709782 10.8975 0.548773 11.3028 0.548773C11.7081 0.548773 12.0968 0.709782 12.3834 0.996378C12.67 1.28297 12.831 1.67169 12.831 2.077L12.831 19.783L19.3917 13.2223C19.6782 12.9358 20.0669 12.7749 20.4721 12.7749C20.8773 12.7749 21.266 12.9358 21.5526 13.2223Z" fill="black"/>
</svg>
