<svg width="14" height="18" viewBox="0 0 14 18" fill="none" xmlns="http://www.w3.org/2000/svg">
<rect x="0.5" y="0.728027" width="13" height="16" stroke="white"/>
<path d="M7 10.3218C7.72487 10.3218 8.3125 9.60823 8.3125 8.72803C8.3125 7.84782 7.72487 7.13428 7 7.13428C6.27513 7.13428 5.6875 7.84782 5.6875 8.72803C5.6875 9.60823 6.27513 10.3218 7 10.3218Z" fill="black"/>
<path d="M11.375 10.3218C12.0999 10.3218 12.6875 9.60823 12.6875 8.72803C12.6875 7.84782 12.0999 7.13428 11.375 7.13428C10.6501 7.13428 10.0625 7.84782 10.0625 8.72803C10.0625 9.60823 10.6501 10.3218 11.375 10.3218Z" fill="black"/>
<path d="M2.625 10.3218C3.34987 10.3218 3.9375 9.60823 3.9375 8.72803C3.9375 7.84782 3.34987 7.13428 2.625 7.13428C1.90013 7.13428 1.3125 7.84782 1.3125 8.72803C1.3125 9.60823 1.90013 10.3218 2.625 10.3218Z" fill="black"/>
</svg>
