<svg width="13" height="18" viewBox="0 0 13 18" fill="none" xmlns="http://www.w3.org/2000/svg">
<rect x="0.5" y="0.728027" width="12" height="16" stroke="white"/>
<path fill-rule="evenodd" clip-rule="evenodd" d="M10.9688 10.3218C11.1931 10.3218 11.375 10.5596 11.375 10.853V14.5718C11.375 14.8652 11.1931 15.103 10.9688 15.103H8.125C7.90063 15.103 7.71875 14.8652 7.71875 14.5718C7.71875 14.2784 7.90063 14.0405 8.125 14.0405H10.5625V10.853C10.5625 10.5596 10.7444 10.3218 10.9688 10.3218Z" fill="black"/>
<path fill-rule="evenodd" clip-rule="evenodd" d="M7.43145 9.94617C7.59008 9.73868 7.8473 9.73864 8.00598 9.94608L10.997 13.8564C11.1557 14.0638 11.1557 14.4002 10.9971 14.6077C10.8384 14.8152 10.5812 14.8152 10.4225 14.6078L7.43152 10.6975C7.27285 10.49 7.27282 10.1537 7.43145 9.94617Z" fill="black"/>
<path fill-rule="evenodd" clip-rule="evenodd" d="M1.625 2.88428C1.625 2.59088 1.80688 2.35303 2.03125 2.35303H4.875C5.09937 2.35303 5.28125 2.59088 5.28125 2.88428C5.28125 3.17768 5.09937 3.41553 4.875 3.41553H2.4375V6.60303C2.4375 6.89643 2.25562 7.13428 2.03125 7.13428C1.80688 7.13428 1.625 6.89643 1.625 6.60303V2.88428Z" fill="black"/>
<path fill-rule="evenodd" clip-rule="evenodd" d="M2.00298 2.84803C2.16161 2.64054 2.41884 2.64049 2.57751 2.84793L5.56852 6.75827C5.7272 6.96571 5.72723 7.30207 5.5686 7.50957C5.40997 7.71706 5.15274 7.7171 4.99407 7.50966L2.00306 3.59933C1.84439 3.39189 1.84435 3.05552 2.00298 2.84803Z" fill="black"/>
<path fill-rule="evenodd" clip-rule="evenodd" d="M7.71875 2.88428C7.71875 2.59088 7.90063 2.35303 8.125 2.35303H10.9688C11.1931 2.35303 11.375 2.59088 11.375 2.88428V6.60303C11.375 6.89643 11.1931 7.13428 10.9688 7.13428C10.7444 7.13428 10.5625 6.89643 10.5625 6.60303V3.41553H8.125C7.90063 3.41553 7.71875 3.17768 7.71875 2.88428Z" fill="black"/>
<path fill-rule="evenodd" clip-rule="evenodd" d="M10.9962 2.84714C11.1549 3.05458 11.1549 3.39095 10.9963 3.59844L8.00605 7.50977C7.84742 7.71726 7.5902 7.71731 7.43152 7.50987C7.27285 7.30243 7.27282 6.96606 7.43145 6.75856L10.4217 2.84724C10.5803 2.63974 10.8376 2.6397 10.9962 2.84714Z" fill="black"/>
<path fill-rule="evenodd" clip-rule="evenodd" d="M2.03125 10.3218C2.25562 10.3218 2.4375 10.5596 2.4375 10.853V14.0405H4.875C5.09937 14.0405 5.28125 14.2784 5.28125 14.5718C5.28125 14.8652 5.09937 15.103 4.875 15.103H2.03125C1.80688 15.103 1.625 14.8652 1.625 14.5718V10.853C1.625 10.5596 1.80688 10.3218 2.03125 10.3218Z" fill="black"/>
<path fill-rule="evenodd" clip-rule="evenodd" d="M5.56849 9.94608C5.72717 10.1535 5.7272 10.4899 5.56857 10.6974L2.57831 14.6087C2.41968 14.8162 2.16246 14.8162 2.00379 14.6088C1.84512 14.4014 1.84509 14.065 2.00372 13.8575L4.99397 9.94617C5.1526 9.73868 5.40982 9.73864 5.56849 9.94608Z" fill="black"/>
</svg>
