<svg width="24" height="24" viewBox="0 0 24 24" fill="none" xmlns="http://www.w3.org/2000/svg">
<mask id="mask0_391_916" style="mask-type:luminance" maskUnits="userSpaceOnUse" x="0" y="0" width="24" height="24">
<path d="M23.9954 0H0.187988V23.8026H23.9954V0Z" fill="white"/>
</mask>
<g mask="url(#mask0_391_916)">
<path fill-rule="evenodd" clip-rule="evenodd" d="M2.17188 11.9092C2.17188 17.36 6.64766 21.8111 12.0995 21.8111C17.5514 21.8111 22.0034 17.36 22.0034 11.9092C22.0034 6.43461 17.5514 1.98352 12.0995 1.98352C6.64766 1.98352 2.17188 6.45841 2.17188 11.9092ZM14.6707 4.36378C15.2659 5.55391 15.7659 6.64883 16.0516 7.93417H18.9323C18.0514 6.24419 16.4563 5.05406 14.6707 4.36378ZM10.2069 7.9421H13.9684C13.5875 6.44254 12.8733 5.15719 12.0876 3.96707C11.302 5.15719 10.6116 6.53775 10.2069 7.9421ZM7.82215 13.8928C7.82215 13.2025 7.72692 12.5836 7.72692 11.8933C7.72692 11.2031 7.72692 10.608 7.82215 9.91772H4.46532C4.25105 10.5128 4.15582 11.2031 4.15582 11.8933C4.15582 12.5836 4.25105 13.2977 4.46532 13.8928H7.82215ZM9.50852 19.4388C8.91334 18.2486 8.41338 17.1537 8.12769 15.8684H5.247C6.15168 17.5584 7.72297 18.7485 9.50852 19.4388ZM9.50852 4.36378C7.72297 5.05406 6.24691 6.24419 5.247 7.93417H8.12769C8.41338 6.64883 8.91334 5.55391 9.50852 4.36378ZM13.9684 15.8684H10.2069C10.6116 17.3441 11.302 18.6533 12.0876 19.8434C12.8971 18.6533 13.5875 17.2489 13.9684 15.8684ZM14.6826 11.8933C14.6826 11.2031 14.5636 10.608 14.4684 9.91772H9.80214C9.70691 10.608 9.61168 11.2031 9.61168 11.8933C9.61168 12.5836 9.70691 13.1787 9.80214 13.8928H14.3732C14.4684 13.2025 14.6826 12.5836 14.6826 11.8933ZM18.9323 15.8684H16.0516C15.7659 17.1537 15.2659 18.3438 14.6707 19.4388C16.4563 18.7485 18.0514 17.5584 18.9323 15.8684ZM19.8369 13.8928C20.0274 13.2977 20.1226 12.5836 20.1226 11.8933C20.1226 11.2031 20.0274 10.5128 19.8369 9.91772H16.4563C16.4563 10.608 16.5515 11.2031 16.5515 11.8933C16.5515 12.5836 16.5515 13.1787 16.4563 13.8928H19.8369Z" fill="white"/>
</g>
</svg>
