<svg width="24" height="30" viewBox="0 0 24 30" fill="none" xmlns="http://www.w3.org/2000/svg">
<rect x="0.5" y="0.498352" width="23" height="28.6376" stroke="white"/>
<path fill-rule="evenodd" clip-rule="evenodd" d="M3.75 17.5957C3.75 16.8923 4.21171 16.3222 4.78125 16.3222H19.2188C19.7883 16.3222 20.25 16.8923 20.25 17.5957C20.25 18.299 19.7883 18.8691 19.2188 18.8691H4.78125C4.21171 18.8691 3.75 18.299 3.75 17.5957Z" fill="#242424"/>
<path fill-rule="evenodd" clip-rule="evenodd" d="M3.75 12.0386C3.75 11.3353 4.21171 10.7651 4.78125 10.7651H19.2188C19.7883 10.7651 20.25 11.3353 20.25 12.0386C20.25 12.7419 19.7883 13.3121 19.2188 13.3121H4.78125C4.21171 13.3121 3.75 12.7419 3.75 12.0386Z" fill="#242424"/>
<path fill-rule="evenodd" clip-rule="evenodd" d="M3.75 6.48157C3.75 5.77824 4.21171 5.20808 4.78125 5.20808H19.2188C19.7883 5.20808 20.25 5.77824 20.25 6.48157C20.25 7.18489 19.7883 7.75505 19.2188 7.75505H4.78125C4.21171 7.75505 3.75 7.18489 3.75 6.48157Z" fill="#242424"/>
<path fill-rule="evenodd" clip-rule="evenodd" d="M3.75 23.1527C3.75 22.4494 4.21171 21.8792 4.78125 21.8792H19.2188C19.7883 21.8792 20.25 22.4494 20.25 23.1527C20.25 23.856 19.7883 24.4262 19.2188 24.4262H4.78125C4.21171 24.4262 3.75 23.856 3.75 23.1527Z" fill="#242424"/>
</svg>
