<svg width="1254" height="416" viewBox="0 0 1254 416" fill="none" xmlns="http://www.w3.org/2000/svg">
<path d="M1254 34.8305V384.112L1253.7 384.294L1202.52 415.784H584.538V414.567H1201.68L1252.02 383.595V35.3173L1222.23 17.0014L217.127 17.0014L189.115 34.2524H23.4171L1.97613 47.457L1.97613 215.769H0L0 46.9397L22.5772 33.0354H188.275L216.336 15.7844L1223.07 15.7844L1254 34.8305Z" fill="white"/>
<g opacity="0.5">
<path fill-rule="evenodd" clip-rule="evenodd" d="M1233.51 15.4447V370.291L1187.52 400H998.848L970.689 381.779H538.559L516.229 396.203L39.0439 396.203L16.8125 381.843V381.715L17.5041 33.9849L36.7714 21.5717H197.134L230.481 3.05176e-05L1209.6 3.05176e-05L1233.51 15.4447ZM1232.53 370.036V15.7L1209.21 0.670166L230.926 0.670166L197.579 22.2099H37.1666L18.5416 34.272L17.8006 381.588L39.4391 395.596L515.834 395.596L538.164 381.173H971.084L999.293 399.362H1187.12L1232.53 370.036Z" fill="white"/>
</g>
</svg>
